<?xml version="1.0" encoding="us-ascii" standalone="no"?><svg xmlns="http://www.w3.org/2000/svg" xmlns:xlink="http://www.w3.org/1999/xlink" contentStyleType="text/css" height="689px" preserveAspectRatio="none" style="width:680px;height:689px;background:#FFFFFF;" version="1.1" viewBox="0 0 680 689" width="680px" zoomAndPan="magnify"><defs/><g><rect fill="none" height="162.7969" style="stroke:#000000;stroke-width:1.5;" width="664" x="10" y="269.9609"/><line style="stroke:#181818;stroke-width:0.5;stroke-dasharray:5.0,5.0;" x1="51" x2="51" y1="81.2969" y2="608.4219"/><line style="stroke:#181818;stroke-width:0.5;stroke-dasharray:5.0,5.0;" x1="376" x2="376" y1="81.2969" y2="608.4219"/><line style="stroke:#181818;stroke-width:0.5;stroke-dasharray:5.0,5.0;" x1="642" x2="642" y1="81.2969" y2="608.4219"/><text fill="#000000" font-family="sans-serif" font-size="14" lengthAdjust="spacing" textLength="57" x="20" y="77.9951">Browser</text><ellipse cx="51.5" cy="13.5" fill="#E2E2F0" rx="8" ry="8" style="stroke:#181818;stroke-width:0.5;"/><path d="M51.5,21.5 L51.5,48.5 M38.5,29.5 L64.5,29.5 M51.5,48.5 L38.5,63.5 M51.5,48.5 L64.5,63.5 " fill="none" style="stroke:#181818;stroke-width:0.5;"/><text fill="#000000" font-family="sans-serif" font-size="14" lengthAdjust="spacing" textLength="57" x="20" y="620.417">Browser</text><ellipse cx="51.5" cy="632.2188" fill="#E2E2F0" rx="8" ry="8" style="stroke:#181818;stroke-width:0.5;"/><path d="M51.5,640.2188 L51.5,667.2188 M38.5,648.2188 L64.5,648.2188 M51.5,667.2188 L38.5,682.2188 M51.5,667.2188 L64.5,682.2188 " fill="none" style="stroke:#181818;stroke-width:0.5;"/><rect fill="#E2E2F0" height="30.2969" rx="2.5" ry="2.5" style="stroke:#181818;stroke-width:0.5;" width="75" x="339" y="50"/><text fill="#000000" font-family="sans-serif" font-size="14" lengthAdjust="spacing" textLength="61" x="346" y="69.9951">Backend</text><rect fill="#E2E2F0" height="30.2969" rx="2.5" ry="2.5" style="stroke:#181818;stroke-width:0.5;" width="75" x="339" y="607.4219"/><text fill="#000000" font-family="sans-serif" font-size="14" lengthAdjust="spacing" textLength="61" x="346" y="627.417">Backend</text><rect fill="#E2E2F0" height="30.2969" rx="2.5" ry="2.5" style="stroke:#181818;stroke-width:0.5;" width="43" x="621" y="50"/><text fill="#000000" font-family="sans-serif" font-size="14" lengthAdjust="spacing" textLength="29" x="628" y="69.9951">OSS</text><rect fill="#E2E2F0" height="30.2969" rx="2.5" ry="2.5" style="stroke:#181818;stroke-width:0.5;" width="43" x="621" y="607.4219"/><text fill="#000000" font-family="sans-serif" font-size="14" lengthAdjust="spacing" textLength="29" x="628" y="627.417">OSS</text><polygon fill="#181818" points="364.5,108.4297,374.5,112.4297,364.5,116.4297,368.5,112.4297" style="stroke:#181818;stroke-width:1.0;"/><line style="stroke:#181818;stroke-width:1.0;" x1="51.5" x2="370.5" y1="112.4297" y2="112.4297"/><text fill="#000000" font-family="sans-serif" font-size="13" lengthAdjust="spacing" textLength="197" x="58.5" y="107.3638">&#9312; &#21021;&#22987;&#21270;&#19978;&#20256; (&#25991;&#20214;&#21517;/&#22823;&#23567;/MD5)</text><line style="stroke:#181818;stroke-width:1.0;" x1="376.5" x2="418.5" y1="141.5625" y2="141.5625"/><line style="stroke:#181818;stroke-width:1.0;" x1="418.5" x2="418.5" y1="141.5625" y2="154.5625"/><line style="stroke:#181818;stroke-width:1.0;" x1="377.5" x2="418.5" y1="154.5625" y2="154.5625"/><polygon fill="#181818" points="387.5,150.5625,377.5,154.5625,387.5,158.5625,383.5,154.5625" style="stroke:#181818;stroke-width:1.0;"/><text fill="#000000" font-family="sans-serif" font-size="13" lengthAdjust="spacing" textLength="78" x="383.5" y="136.4966">&#26657;&#39564;&#25991;&#20214;&#20449;&#24687;</text><polygon fill="#181818" points="630.5,179.6953,640.5,183.6953,630.5,187.6953,634.5,183.6953" style="stroke:#181818;stroke-width:1.0;"/><line style="stroke:#181818;stroke-width:1.0;" x1="376.5" x2="636.5" y1="183.6953" y2="183.6953"/><text fill="#000000" font-family="sans-serif" font-size="13" lengthAdjust="spacing" textLength="242" x="383.5" y="178.6294">InitiateMultipartUpload (&#36820;&#22238; uploadId)</text><line style="stroke:#181818;stroke-width:1.0;" x1="376.5" x2="418.5" y1="212.8281" y2="212.8281"/><line style="stroke:#181818;stroke-width:1.0;" x1="418.5" x2="418.5" y1="212.8281" y2="225.8281"/><line style="stroke:#181818;stroke-width:1.0;" x1="377.5" x2="418.5" y1="225.8281" y2="225.8281"/><polygon fill="#181818" points="387.5,221.8281,377.5,225.8281,387.5,229.8281,383.5,225.8281" style="stroke:#181818;stroke-width:1.0;"/><text fill="#000000" font-family="sans-serif" font-size="13" lengthAdjust="spacing" textLength="161" x="383.5" y="207.7622">&#20445;&#23384; uploadId / &#21021;&#22987;&#21270;&#35760;&#24405;</text><polygon fill="#181818" points="62.5,250.9609,52.5,254.9609,62.5,258.9609,58.5,254.9609" style="stroke:#181818;stroke-width:1.0;"/><line style="stroke:#181818;stroke-width:1.0;stroke-dasharray:2.0,2.0;" x1="56.5" x2="375.5" y1="254.9609" y2="254.9609"/><text fill="#000000" font-family="sans-serif" font-size="13" lengthAdjust="spacing" textLength="84" x="68.5" y="249.895">&#36820;&#22238; uploadId</text><path d="M10,269.9609 L87,269.9609 L87,277.0938 L77,287.0938 L10,287.0938 L10,269.9609 " fill="#EEEEEE" style="stroke:#000000;stroke-width:1.5;"/><rect fill="none" height="162.7969" style="stroke:#000000;stroke-width:1.5;" width="664" x="10" y="269.9609"/><text fill="#000000" font-family="sans-serif" font-size="13" font-weight="bold" lengthAdjust="spacing" textLength="32" x="25" y="283.0278">loop</text><text fill="#000000" font-family="sans-serif" font-size="11" font-weight="bold" lengthAdjust="spacing" textLength="54" x="102" y="282.1714">[&#20998;&#29255;&#19978;&#20256;]</text><polygon fill="#181818" points="364.5,304.2266,374.5,308.2266,364.5,312.2266,368.5,308.2266" style="stroke:#181818;stroke-width:1.0;"/><line style="stroke:#181818;stroke-width:1.0;" x1="51.5" x2="370.5" y1="308.2266" y2="308.2266"/><text fill="#000000" font-family="sans-serif" font-size="13" lengthAdjust="spacing" textLength="301" x="58.5" y="303.1606">&#9313; &#35831;&#27714;&#20998;&#29255;&#39044;&#31614;&#21517; URL (uploadId + partNumber)</text><polygon fill="#181818" points="630.5,333.3594,640.5,337.3594,630.5,341.3594,634.5,337.3594" style="stroke:#181818;stroke-width:1.0;"/><line style="stroke:#181818;stroke-width:1.0;" x1="376.5" x2="636.5" y1="337.3594" y2="337.3594"/><text fill="#000000" font-family="sans-serif" font-size="13" lengthAdjust="spacing" textLength="151" x="383.5" y="332.2935">&#29983;&#25104; Presigned PUT URL</text><polygon fill="#181818" points="62.5,362.4922,52.5,366.4922,62.5,370.4922,58.5,366.4922" style="stroke:#181818;stroke-width:1.0;"/><line style="stroke:#181818;stroke-width:1.0;stroke-dasharray:2.0,2.0;" x1="56.5" x2="375.5" y1="366.4922" y2="366.4922"/><text fill="#000000" font-family="sans-serif" font-size="13" lengthAdjust="spacing" textLength="122" x="68.5" y="361.4263">&#36820;&#22238; Presigned URL</text><polygon fill="#181818" points="630.5,391.625,640.5,395.625,630.5,399.625,634.5,395.625" style="stroke:#181818;stroke-width:1.0;"/><line style="stroke:#181818;stroke-width:1.0;" x1="51.5" x2="636.5" y1="395.625" y2="395.625"/><text fill="#000000" font-family="sans-serif" font-size="13" lengthAdjust="spacing" textLength="116" x="58.5" y="390.5591">&#9314; PUT &#20998;&#29255;&#21040; OSS</text><polygon fill="#181818" points="62.5,420.7578,52.5,424.7578,62.5,428.7578,58.5,424.7578" style="stroke:#181818;stroke-width:1.0;"/><line style="stroke:#181818;stroke-width:1.0;stroke-dasharray:2.0,2.0;" x1="56.5" x2="641.5" y1="424.7578" y2="424.7578"/><text fill="#000000" font-family="sans-serif" font-size="13" lengthAdjust="spacing" textLength="61" x="68.5" y="419.6919">&#36820;&#22238; ETag</text><polygon fill="#181818" points="364.5,456.8906,374.5,460.8906,364.5,464.8906,368.5,460.8906" style="stroke:#181818;stroke-width:1.0;"/><line style="stroke:#181818;stroke-width:1.0;" x1="51.5" x2="370.5" y1="460.8906" y2="460.8906"/><text fill="#000000" font-family="sans-serif" font-size="13" lengthAdjust="spacing" textLength="272" x="58.5" y="455.8247">&#9315; &#36890;&#30693;&#23436;&#25104;&#19978;&#20256; (uploadId + &#25152;&#26377; part ETag)</text><polygon fill="#181818" points="630.5,486.0234,640.5,490.0234,630.5,494.0234,634.5,490.0234" style="stroke:#181818;stroke-width:1.0;"/><line style="stroke:#181818;stroke-width:1.0;" x1="376.5" x2="636.5" y1="490.0234" y2="490.0234"/><text fill="#000000" font-family="sans-serif" font-size="13" lengthAdjust="spacing" textLength="163" x="383.5" y="484.9575">CompleteMultipartUpload</text><polygon fill="#181818" points="387.5,515.1563,377.5,519.1563,387.5,523.1563,383.5,519.1563" style="stroke:#181818;stroke-width:1.0;"/><line style="stroke:#181818;stroke-width:1.0;stroke-dasharray:2.0,2.0;" x1="381.5" x2="641.5" y1="519.1563" y2="519.1563"/><text fill="#000000" font-family="sans-serif" font-size="13" lengthAdjust="spacing" textLength="52" x="393.5" y="514.0903">&#19978;&#20256;&#23436;&#25104;</text><line style="stroke:#181818;stroke-width:1.0;" x1="376.5" x2="418.5" y1="548.2891" y2="548.2891"/><line style="stroke:#181818;stroke-width:1.0;" x1="418.5" x2="418.5" y1="548.2891" y2="561.2891"/><line style="stroke:#181818;stroke-width:1.0;" x1="377.5" x2="418.5" y1="561.2891" y2="561.2891"/><polygon fill="#181818" points="387.5,557.2891,377.5,561.2891,387.5,565.2891,383.5,561.2891" style="stroke:#181818;stroke-width:1.0;"/><text fill="#000000" font-family="sans-serif" font-size="13" lengthAdjust="spacing" textLength="91" x="383.5" y="543.2231">&#26356;&#26032;&#25968;&#25454;&#24211;&#29366;&#24577;</text><polygon fill="#181818" points="62.5,586.4219,52.5,590.4219,62.5,594.4219,58.5,590.4219" style="stroke:#181818;stroke-width:1.0;"/><line style="stroke:#181818;stroke-width:1.0;stroke-dasharray:2.0,2.0;" x1="56.5" x2="375.5" y1="590.4219" y2="590.4219"/><text fill="#000000" font-family="sans-serif" font-size="13" lengthAdjust="spacing" textLength="169" x="68.5" y="585.356">&#19978;&#20256;&#23436;&#25104;&#65292;&#36820;&#22238;&#25991;&#20214;&#35775;&#38382;&#22320;&#22336;</text></g></svg>