<?xml version="1.0" encoding="us-ascii" standalone="no"?><svg xmlns="http://www.w3.org/2000/svg" xmlns:xlink="http://www.w3.org/1999/xlink" contentStyleType="text/css" height="770px" preserveAspectRatio="none" style="width:1503px;height:770px;background:#FFFFFF;" version="1.1" viewBox="0 0 1503 770" width="1503px" zoomAndPan="magnify"><defs/><g><ellipse cx="419.875" cy="20" fill="#222222" rx="10" ry="10" style="stroke:#222222;stroke-width:1.0;"/><rect fill="#F1F1F1" height="33.9688" rx="12.5" ry="12.5" style="stroke:#181818;stroke-width:0.5;" width="115" x="362.375" y="50"/><text fill="#000000" font-family="sans-serif" font-size="12" lengthAdjust="spacing" textLength="95" x="372.375" y="71.1387">poll_next &#34987;&#35843;&#29992;</text><polygon fill="#F1F1F1" points="396.375,103.9688,443.375,103.9688,455.375,115.9688,443.375,127.9688,396.375,127.9688,384.375,115.9688,396.375,103.9688" style="stroke:#181818;stroke-width:0.5;"/><text fill="#000000" font-family="sans-serif" font-size="11" lengthAdjust="spacing" textLength="47" x="396.375" y="119.7769">fut &#26377;&#20540;?</text><text fill="#000000" font-family="sans-serif" font-size="11" lengthAdjust="spacing" textLength="11" x="373.375" y="113.3745">&#26159;</text><text fill="#000000" font-family="sans-serif" font-size="11" lengthAdjust="spacing" textLength="11" x="455.375" y="113.3745">&#21542;</text><rect fill="#F1F1F1" height="33.9688" rx="12.5" ry="12.5" style="stroke:#181818;stroke-width:0.5;" width="148" x="41.5" y="137.9688"/><text fill="#000000" font-family="sans-serif" font-size="12" lengthAdjust="spacing" textLength="128" x="51.5" y="159.1074">Pin::new(fut).poll(cx)</text><rect fill="#F1F1F1" height="33.9688" rx="12.5" ry="12.5" style="stroke:#181818;stroke-width:0.5;" width="146" x="42.5" y="206.9375"/><text fill="#000000" font-family="sans-serif" font-size="12" lengthAdjust="spacing" textLength="126" x="52.5" y="228.0762">&#24471;&#21040; chunk, decoder</text><rect fill="#F1F1F1" height="33.9688" rx="12.5" ry="12.5" style="stroke:#181818;stroke-width:0.5;" width="209" x="11" y="270.875"/><text fill="#000000" font-family="sans-serif" font-size="12" lengthAdjust="spacing" textLength="189" x="21" y="292.0137">&#36820;&#22238; Poll::Ready(Some(chunk))</text><polygon fill="#F1F1F1" points="697.25,137.9688,751.25,137.9688,763.25,149.9688,751.25,161.9688,697.25,161.9688,685.25,149.9688,697.25,137.9688" style="stroke:#181818;stroke-width:0.5;"/><text fill="#000000" font-family="sans-serif" font-size="11" lengthAdjust="spacing" textLength="54" x="697.25" y="153.7769">EOF &#26631;&#24535;?</text><text fill="#000000" font-family="sans-serif" font-size="11" lengthAdjust="spacing" textLength="11" x="674.25" y="147.3745">&#26159;</text><text fill="#000000" font-family="sans-serif" font-size="11" lengthAdjust="spacing" textLength="11" x="763.25" y="147.3745">&#21542;</text><polygon fill="#F1F1F1" points="384,171.9688,462,171.9688,474,183.9688,462,195.9688,384,195.9688,372,183.9688,384,171.9688" style="stroke:#181818;stroke-width:0.5;"/><text fill="#000000" font-family="sans-serif" font-size="11" lengthAdjust="spacing" textLength="78" x="384" y="187.7769">decoder &#23384;&#22312;?</text><text fill="#000000" font-family="sans-serif" font-size="11" lengthAdjust="spacing" textLength="11" x="361" y="181.3745">&#26159;</text><text fill="#000000" font-family="sans-serif" font-size="11" lengthAdjust="spacing" textLength="11" x="474" y="181.3745">&#21542;</text><rect fill="#F1F1F1" height="33.9688" rx="12.5" ry="12.5" style="stroke:#181818;stroke-width:0.5;" width="168" x="241.5" y="205.9688"/><text fill="#000000" font-family="sans-serif" font-size="12" lengthAdjust="spacing" textLength="148" x="251.5" y="227.1074">&#35843;&#29992; decoder.feed_eof()</text><rect fill="#F1F1F1" height="33.9688" rx="12.5" ry="12.5" style="stroke:#181818;stroke-width:0.5;" width="191" x="230" y="269.9063"/><text fill="#000000" font-family="sans-serif" font-size="12" lengthAdjust="spacing" textLength="171" x="240" y="291.0449">&#36820;&#22238; Poll::Ready(Some(res))</text><rect fill="#F1F1F1" height="33.9688" rx="12.5" ry="12.5" style="stroke:#181818;stroke-width:0.5;" width="159" x="441" y="205.9688"/><text fill="#000000" font-family="sans-serif" font-size="12" lengthAdjust="spacing" textLength="139" x="451" y="227.1074">&#36820;&#22238; Poll::Ready(None)</text><polygon fill="#F1F1F1" points="423,309.875,435,321.875,423,333.875,411,321.875,423,309.875" style="stroke:#181818;stroke-width:0.5;"/><rect fill="#F1F1F1" height="33.9688" rx="12.5" ry="12.5" style="stroke:#181818;stroke-width:0.5;" width="151" x="980" y="171.9688"/><text fill="#000000" font-family="sans-serif" font-size="12" lengthAdjust="spacing" textLength="131" x="990" y="193.1074">&#31561;&#24453; stream.poll_next</text><polygon fill="#F1F1F1" points="807.5,260.9063,934.5,260.9063,946.5,272.9063,934.5,284.9063,807.5,284.9063,795.5,272.9063,807.5,260.9063" style="stroke:#181818;stroke-width:0.5;"/><text fill="#000000" font-family="sans-serif" font-size="11" lengthAdjust="spacing" textLength="11" x="875" y="295.1167">&#26159;</text><text fill="#000000" font-family="sans-serif" font-size="11" lengthAdjust="spacing" textLength="127" x="807.5" y="276.7144">stream &#36820;&#22238; Ok(chunk)</text><polygon fill="#F1F1F1" points="832,317.7109,910,317.7109,922,329.7109,910,341.7109,832,341.7109,820,329.7109,832,317.7109" style="stroke:#181818;stroke-width:0.5;"/><text fill="#000000" font-family="sans-serif" font-size="11" lengthAdjust="spacing" textLength="78" x="832" y="333.519">decoder &#23384;&#22312;?</text><text fill="#000000" font-family="sans-serif" font-size="11" lengthAdjust="spacing" textLength="11" x="809" y="327.1167">&#26159;</text><text fill="#000000" font-family="sans-serif" font-size="11" lengthAdjust="spacing" textLength="11" x="922" y="327.1167">&#21542;</text><rect fill="#F1F1F1" height="33.9688" rx="12.5" ry="12.5" style="stroke:#181818;stroke-width:0.5;" width="187" x="645" y="351.7109"/><text fill="#000000" font-family="sans-serif" font-size="12" lengthAdjust="spacing" textLength="167" x="655" y="372.8496">decoder.feed_data(chunk)</text><rect fill="#F1F1F1" height="33.9688" rx="12.5" ry="12.5" style="stroke:#181818;stroke-width:0.5;" width="257" x="610" y="420.6797"/><text fill="#000000" font-family="sans-serif" font-size="12" lengthAdjust="spacing" textLength="237" x="620" y="441.8184">&#33509;&#25104;&#21151;&#65292;&#36820;&#22238; Poll::Ready(Some(chunk))</text><rect fill="#F1F1F1" height="33.9688" rx="12.5" ry="12.5" style="stroke:#181818;stroke-width:0.5;" width="230" x="623.5" y="489.6484"/><text fill="#000000" font-family="sans-serif" font-size="12" lengthAdjust="spacing" textLength="210" x="633.5" y="510.7871">&#33509;&#38656;&#38459;&#22622;&#65292;spawn_blocking &#24322;&#27493;&#35299;&#30721;</text><rect fill="#F1F1F1" height="33.9688" rx="12.5" ry="12.5" style="stroke:#181818;stroke-width:0.5;" width="233" x="887" y="351.7109"/><text fill="#000000" font-family="sans-serif" font-size="12" lengthAdjust="spacing" textLength="213" x="897" y="372.8496">&#30452;&#25509;&#36820;&#22238; Poll::Ready(Some(chunk))</text><polygon fill="#F1F1F1" points="871,529.6172,883,541.6172,871,553.6172,859,541.6172,871,529.6172" style="stroke:#181818;stroke-width:0.5;"/><polygon fill="#F1F1F1" points="1215.5,260.9063,1283.5,260.9063,1295.5,272.9063,1283.5,284.9063,1215.5,284.9063,1203.5,272.9063,1215.5,260.9063" style="stroke:#181818;stroke-width:0.5;"/><text fill="#000000" font-family="sans-serif" font-size="11" lengthAdjust="spacing" textLength="68" x="1215.5" y="276.7144">&#36820;&#22238; Err(err)</text><text fill="#000000" font-family="sans-serif" font-size="11" lengthAdjust="spacing" textLength="55" x="1295.5" y="270.312">&#36820;&#22238; None</text><rect fill="#F1F1F1" height="33.9688" rx="12.5" ry="12.5" style="stroke:#181818;stroke-width:0.5;" width="217" x="1141" y="304.9063"/><text fill="#000000" font-family="sans-serif" font-size="12" lengthAdjust="spacing" textLength="197" x="1151" y="326.0449">&#36820;&#22238; Poll::Ready(Some(Err(err)))</text><rect fill="#F1F1F1" height="33.9688" rx="12.5" ry="12.5" style="stroke:#181818;stroke-width:0.5;" width="72" x="1394" y="380.793"/><text fill="#000000" font-family="sans-serif" font-size="12" lengthAdjust="spacing" textLength="52" x="1404" y="401.9316">&#26631;&#35760; EOF</text><rect fill="#F1F1F1" height="33.9688" rx="12.5" ry="12.5" style="stroke:#181818;stroke-width:0.5;" width="124" x="1368" y="449.7617"/><text fill="#000000" font-family="sans-serif" font-size="12" lengthAdjust="spacing" textLength="104" x="1378" y="470.9004">&#22238;&#21040; EOF &#20998;&#25903;&#22788;&#29702;</text><polygon fill="#F1F1F1" points="724.25,579.6172,736.25,591.6172,724.25,603.6172,712.25,591.6172,724.25,579.6172" style="stroke:#181818;stroke-width:0.5;"/><polygon fill="#F1F1F1" points="419.875,609.6172,431.875,621.6172,419.875,633.6172,407.875,621.6172,419.875,609.6172" style="stroke:#181818;stroke-width:0.5;"/><ellipse cx="419.875" cy="663.6172" fill="none" rx="10" ry="10" style="stroke:#222222;stroke-width:1.5;"/><line style="stroke:#222222;stroke-width:2.5;" x1="413.6878" x2="426.0622" y1="657.43" y2="669.8044"/><line style="stroke:#222222;stroke-width:2.5;" x1="426.0622" x2="413.6878" y1="657.43" y2="669.8044"/><rect fill="#F1F1F1" height="33.9688" rx="12.5" ry="12.5" style="stroke:#181818;stroke-width:0.5;" width="209" x="315.375" y="683.6172"/><text fill="#000000" font-family="sans-serif" font-size="12" lengthAdjust="spacing" textLength="189" x="325.375" y="704.7559">&#36820;&#22238; Poll::Ready(Some(chunk))</text><ellipse cx="419.875" cy="748.5859" fill="none" rx="11" ry="11" style="stroke:#222222;stroke-width:1.0;"/><ellipse cx="419.875" cy="748.5859" fill="#222222" rx="6" ry="6" style="stroke:#222222;stroke-width:1.0;"/><line style="stroke:#181818;stroke-width:1.0;" x1="419.875" x2="419.875" y1="30" y2="50"/><polygon fill="#181818" points="415.875,40,419.875,50,423.875,40,419.875,44" style="stroke:#181818;stroke-width:1.0;"/><line style="stroke:#181818;stroke-width:1.0;" x1="115.5" x2="115.5" y1="171.9375" y2="206.9375"/><polygon fill="#181818" points="111.5,196.9375,115.5,206.9375,119.5,196.9375,115.5,200.9375" style="stroke:#181818;stroke-width:1.0;"/><line style="stroke:#181818;stroke-width:1.0;" x1="115.5" x2="115.5" y1="240.9063" y2="270.875"/><polygon fill="#181818" points="111.5,260.875,115.5,270.875,119.5,260.875,115.5,264.875" style="stroke:#181818;stroke-width:1.0;"/><line style="stroke:#181818;stroke-width:1.0;" x1="325.5" x2="325.5" y1="239.9375" y2="269.9063"/><polygon fill="#181818" points="321.5,259.9063,325.5,269.9063,329.5,259.9063,325.5,263.9063" style="stroke:#181818;stroke-width:1.0;"/><line style="stroke:#181818;stroke-width:1.0;" x1="372" x2="325.5" y1="183.9688" y2="183.9688"/><line style="stroke:#181818;stroke-width:1.0;" x1="325.5" x2="325.5" y1="183.9688" y2="205.9688"/><polygon fill="#181818" points="321.5,195.9688,325.5,205.9688,329.5,195.9688,325.5,199.9688" style="stroke:#181818;stroke-width:1.0;"/><line style="stroke:#181818;stroke-width:1.0;" x1="474" x2="520.5" y1="183.9688" y2="183.9688"/><line style="stroke:#181818;stroke-width:1.0;" x1="520.5" x2="520.5" y1="183.9688" y2="205.9688"/><polygon fill="#181818" points="516.5,195.9688,520.5,205.9688,524.5,195.9688,520.5,199.9688" style="stroke:#181818;stroke-width:1.0;"/><line style="stroke:#181818;stroke-width:1.0;" x1="325.5" x2="325.5" y1="303.875" y2="321.875"/><line style="stroke:#181818;stroke-width:1.0;" x1="325.5" x2="411" y1="321.875" y2="321.875"/><polygon fill="#181818" points="401,317.875,411,321.875,401,325.875,405,321.875" style="stroke:#181818;stroke-width:1.0;"/><line style="stroke:#181818;stroke-width:1.0;" x1="520.5" x2="520.5" y1="239.9375" y2="321.875"/><line style="stroke:#181818;stroke-width:1.0;" x1="520.5" x2="435" y1="321.875" y2="321.875"/><polygon fill="#181818" points="445,317.875,435,321.875,445,325.875,441,321.875" style="stroke:#181818;stroke-width:1.0;"/><line style="stroke:#181818;stroke-width:1.0;" x1="738.5" x2="738.5" y1="385.6797" y2="420.6797"/><polygon fill="#181818" points="734.5,410.6797,738.5,420.6797,742.5,410.6797,738.5,414.6797" style="stroke:#181818;stroke-width:1.0;"/><line style="stroke:#181818;stroke-width:1.0;" x1="738.5" x2="738.5" y1="454.6484" y2="489.6484"/><polygon fill="#181818" points="734.5,479.6484,738.5,489.6484,742.5,479.6484,738.5,483.6484" style="stroke:#181818;stroke-width:1.0;"/><line style="stroke:#181818;stroke-width:1.0;" x1="820" x2="738.5" y1="329.7109" y2="329.7109"/><line style="stroke:#181818;stroke-width:1.0;" x1="738.5" x2="738.5" y1="329.7109" y2="351.7109"/><polygon fill="#181818" points="734.5,341.7109,738.5,351.7109,742.5,341.7109,738.5,345.7109" style="stroke:#181818;stroke-width:1.0;"/><line style="stroke:#181818;stroke-width:1.0;" x1="922" x2="1003.5" y1="329.7109" y2="329.7109"/><line style="stroke:#181818;stroke-width:1.0;" x1="1003.5" x2="1003.5" y1="329.7109" y2="351.7109"/><polygon fill="#181818" points="999.5,341.7109,1003.5,351.7109,1007.5,341.7109,1003.5,345.7109" style="stroke:#181818;stroke-width:1.0;"/><line style="stroke:#181818;stroke-width:1.0;" x1="738.5" x2="738.5" y1="523.6172" y2="541.6172"/><line style="stroke:#181818;stroke-width:1.0;" x1="738.5" x2="859" y1="541.6172" y2="541.6172"/><polygon fill="#181818" points="849,537.6172,859,541.6172,849,545.6172,853,541.6172" style="stroke:#181818;stroke-width:1.0;"/><line style="stroke:#181818;stroke-width:1.0;" x1="1003.5" x2="1003.5" y1="385.6797" y2="541.6172"/><line style="stroke:#181818;stroke-width:1.0;" x1="1003.5" x2="883" y1="541.6172" y2="541.6172"/><polygon fill="#181818" points="893,537.6172,883,541.6172,893,545.6172,889,541.6172" style="stroke:#181818;stroke-width:1.0;"/><line style="stroke:#181818;stroke-width:1.0;" x1="1430" x2="1430" y1="414.7617" y2="449.7617"/><polygon fill="#181818" points="1426,439.7617,1430,449.7617,1434,439.7617,1430,443.7617" style="stroke:#181818;stroke-width:1.0;"/><line style="stroke:#181818;stroke-width:1.0;" x1="871" x2="871" y1="284.9063" y2="317.7109"/><polygon fill="#181818" points="867,307.7109,871,317.7109,875,307.7109,871,311.7109" style="stroke:#181818;stroke-width:1.0;"/><line style="stroke:#181818;stroke-width:1.0;" x1="871" x2="871" y1="553.6172" y2="573.6172"/><polygon fill="#181818" points="867,563.6172,871,573.6172,875,563.6172,871,567.6172" style="stroke:#181818;stroke-width:1.0;"/><line style="stroke:#181818;stroke-width:1.0;" x1="1249.5" x2="1249.5" y1="284.9063" y2="304.9063"/><polygon fill="#181818" points="1245.5,294.9063,1249.5,304.9063,1253.5,294.9063,1249.5,298.9063" style="stroke:#181818;stroke-width:1.0;"/><line style="stroke:#181818;stroke-width:1.0;" x1="1249.5" x2="1249.5" y1="338.875" y2="573.6172"/><polygon fill="#181818" points="1245.5,563.6172,1249.5,573.6172,1253.5,563.6172,1249.5,567.6172" style="stroke:#181818;stroke-width:1.0;"/><line style="stroke:#181818;stroke-width:1.0;" x1="946.5" x2="1203.5" y1="272.9063" y2="272.9063"/><polygon fill="#181818" points="1193.5,268.9063,1203.5,272.9063,1193.5,276.9063,1197.5,272.9063" style="stroke:#181818;stroke-width:1.0;"/><line style="stroke:#181818;stroke-width:1.0;" x1="1055.5" x2="1055.5" y1="205.9375" y2="240.9375"/><line style="stroke:#181818;stroke-width:1.0;" x1="1055.5" x2="871" y1="240.9375" y2="240.9375"/><line style="stroke:#181818;stroke-width:1.0;" x1="871" x2="871" y1="240.9375" y2="260.9063"/><polygon fill="#181818" points="867,250.9063,871,260.9063,875,250.9063,871,254.9063" style="stroke:#181818;stroke-width:1.0;"/><line style="stroke:#181818;stroke-width:1.0;" x1="1295.5" x2="1430" y1="272.9063" y2="272.9063"/><line style="stroke:#181818;stroke-width:1.0;" x1="1430" x2="1430" y1="272.9063" y2="380.793"/><polygon fill="#181818" points="1426,370.793,1430,380.793,1434,370.793,1430,374.793" style="stroke:#181818;stroke-width:1.0;"/><line style="stroke:#181818;stroke-width:1.0;" x1="1430" x2="1430" y1="483.7305" y2="573.6172"/><polygon fill="#181818" points="1426,563.6172,1430,573.6172,1434,563.6172,1430,567.6172" style="stroke:#181818;stroke-width:1.0;"/><line style="stroke:#181818;stroke-width:1.0;" x1="871" x2="1430" y1="573.6172" y2="573.6172"/><line style="stroke:#181818;stroke-width:1.0;" x1="685.25" x2="423" y1="149.9688" y2="149.9688"/><line style="stroke:#181818;stroke-width:1.0;" x1="423" x2="423" y1="149.9688" y2="171.9688"/><polygon fill="#181818" points="419,161.9688,423,171.9688,427,161.9688,423,165.9688" style="stroke:#181818;stroke-width:1.0;"/><line style="stroke:#181818;stroke-width:1.0;" x1="763.25" x2="1055.5" y1="149.9688" y2="149.9688"/><line style="stroke:#181818;stroke-width:1.0;" x1="1055.5" x2="1055.5" y1="149.9688" y2="171.9688"/><polygon fill="#181818" points="1051.5,161.9688,1055.5,171.9688,1059.5,161.9688,1055.5,165.9688" style="stroke:#181818;stroke-width:1.0;"/><line style="stroke:#181818;stroke-width:1.0;" x1="423" x2="423" y1="333.875" y2="591.6172"/><line style="stroke:#181818;stroke-width:1.0;" x1="423" x2="712.25" y1="591.6172" y2="591.6172"/><polygon fill="#181818" points="702.25,587.6172,712.25,591.6172,702.25,595.6172,706.25,591.6172" style="stroke:#181818;stroke-width:1.0;"/><line style="stroke:#181818;stroke-width:1.0;" x1="1055.5" x2="1055.5" y1="573.6172" y2="591.6172"/><line style="stroke:#181818;stroke-width:1.0;" x1="1055.5" x2="736.25" y1="591.6172" y2="591.6172"/><polygon fill="#181818" points="746.25,587.6172,736.25,591.6172,746.25,595.6172,742.25,591.6172" style="stroke:#181818;stroke-width:1.0;"/><line style="stroke:#181818;stroke-width:1.0;" x1="384.375" x2="115.5" y1="115.9688" y2="115.9688"/><line style="stroke:#181818;stroke-width:1.0;" x1="115.5" x2="115.5" y1="115.9688" y2="137.9688"/><polygon fill="#181818" points="111.5,127.9688,115.5,137.9688,119.5,127.9688,115.5,131.9688" style="stroke:#181818;stroke-width:1.0;"/><line style="stroke:#181818;stroke-width:1.0;" x1="455.375" x2="724.25" y1="115.9688" y2="115.9688"/><line style="stroke:#181818;stroke-width:1.0;" x1="724.25" x2="724.25" y1="115.9688" y2="137.9688"/><polygon fill="#181818" points="720.25,127.9688,724.25,137.9688,728.25,127.9688,724.25,131.9688" style="stroke:#181818;stroke-width:1.0;"/><line style="stroke:#181818;stroke-width:1.0;" x1="115.5" x2="115.5" y1="304.8438" y2="621.6172"/><line style="stroke:#181818;stroke-width:1.0;" x1="115.5" x2="407.875" y1="621.6172" y2="621.6172"/><polygon fill="#181818" points="397.875,617.6172,407.875,621.6172,397.875,625.6172,401.875,621.6172" style="stroke:#181818;stroke-width:1.0;"/><line style="stroke:#181818;stroke-width:1.0;" x1="724.25" x2="724.25" y1="603.6172" y2="621.6172"/><line style="stroke:#181818;stroke-width:1.0;" x1="724.25" x2="431.875" y1="621.6172" y2="621.6172"/><polygon fill="#181818" points="441.875,617.6172,431.875,621.6172,441.875,625.6172,437.875,621.6172" style="stroke:#181818;stroke-width:1.0;"/><line style="stroke:#181818;stroke-width:1.0;" x1="419.875" x2="419.875" y1="83.9688" y2="103.9688"/><polygon fill="#181818" points="415.875,93.9688,419.875,103.9688,423.875,93.9688,419.875,97.9688" style="stroke:#181818;stroke-width:1.0;"/><line style="stroke:#181818;stroke-width:1.0;" x1="419.875" x2="419.875" y1="633.6172" y2="653.6172"/><polygon fill="#181818" points="415.875,643.6172,419.875,653.6172,423.875,643.6172,419.875,647.6172" style="stroke:#181818;stroke-width:1.0;"/><line style="stroke:#181818;stroke-width:1.0;" x1="419.875" x2="419.875" y1="717.5859" y2="737.5859"/><polygon fill="#181818" points="415.875,727.5859,419.875,737.5859,423.875,727.5859,419.875,731.5859" style="stroke:#181818;stroke-width:1.0;"/></g></svg>